<mxGraphModel dx="1190" dy="757" grid="1" gridSize="10" guides="1" tooltips="1" connect="1" arrows="1" fold="1" page="1" pageScale="1" pageWidth="850" pageHeight="1100" background="#ffffff">
  <root>
    <mxCell id="0"/>
    <mxCell id="1" parent="0"/>
    <mxCell id="e73a11dc-eaaa-4b05-abdf-63c44e5bea5e" value="PSU" style="rounded=1;shape=rectangle;whiteSpace=wrap;html=1;fillColor=#2E9CCA;" vertex="1" parent="1">
      <mxGeometry x="200" y="100" width="100" height="50" as="geometry"/>
    </mxCell>
    <mxCell id="8f70b612-f9df-4027-b2fa-12976d96fde2" value="ESP32" style="rounded=1;shape=rectangle;whiteSpace=wrap;html=1;fillColor=#2E9CCA;" vertex="1" parent="1">
      <mxGeometry x="200" y="200" width="100" height="50" as="geometry"/>
    </mxCell>
    <mxCell id="06935e71-a559-48c6-b3d8-f4c1a05cabac" value="BME280" style="rounded=1;shape=rectangle;whiteSpace=wrap;html=1;fillColor=#2E9CCA;" vertex="1" parent="1">
      <mxGeometry x="200" y="300" width="100" height="50" as="geometry"/>
    </mxCell>
    <mxCell style="edgeStyle=entityRelationEdgeStyle;rounded=1;orthogonalLoop=1;jettySize=auto;html=1;strokeColor=#000000;" value="power_out - power" edge="1" parent="1" source="e73a11dc-eaaa-4b05-abdf-63c44e5bea5e" target="8f70b612-f9df-4027-b2fa-12976d96fde2">
      <mxGeometry relative="1" as="geometry"/>
    </mxCell>
    <mxCell style="edgeStyle=entityRelationEdgeStyle;rounded=1;orthogonalLoop=1;jettySize=auto;html=1;strokeColor=#000000;" value="power_out - power" edge="1" parent="1" source="e73a11dc-eaaa-4b05-abdf-63c44e5bea5e" target="06935e71-a559-48c6-b3d8-f4c1a05cabac">
      <mxGeometry relative="1" as="geometry"/>
    </mxCell>
    <mxCell style="edgeStyle=entityRelationEdgeStyle;rounded=1;orthogonalLoop=1;jettySize=auto;html=1;strokeColor=#000000;" value="i2c - i2c" edge="1" parent="1" source="8f70b612-f9df-4027-b2fa-12976d96fde2" target="06935e71-a559-48c6-b3d8-f4c1a05cabac">
      <mxGeometry relative="1" as="geometry"/>
    </mxCell>
  </root>
</mxGraphModel>
